@startuml
[*] --> Idle

Idle --> Pending: Enter

Pending --> Idle: Leave
Pending -left-> Engaged: Push / Notify:Pushed

Engaged --> Pending: Release / Notify:Released
Engaged --> EngagedRemotely: EngagedEscape
Engaged --> Idle: Leave

EngagedRemotely --> Engaged: EngagedReturn
EngagedRemotely -> Idle: Release / \n Notify:ReleasedOutside
EngagedRemotely -> Idle: Leave


@enduml