@startuml

note "This state machine takes advantage of the UML state machine rules regarding\nsubmachines and transition priorities. For more details: \n http://www.boost.org/doc/libs/1_55_0/libs/msm/doc/HTML/ch02s02.html#d0e226 \n\nAlso observe the output of running StateMachineTests and StateMachine2Tests\nto gain a better understanding of these rules\n\nAlso, note that boost msm's implementation of *Any* events also is invoked \nif the state machine uses any anonymous transitions so a special guard has \nto be used to avoid this" as N1

[*] --> Startup

Startup --> IdlePointer: [IsPointer]
Startup --> IdleTouch: [IsTouch]

IdlePointer --> HasTarget: *Any* [!EventTypeIsAnonymous && \n IsAtopControl]
IdleTouch --> HasTarget: Down [IsAtopControl]

RetargetPointer --> HasTarget: [IsAtopControl]
RetargetPointer --> IdlePointer: [!IsAtopControl]
HasTarget -u-> RetargetPointer: *Any* [IsPointer && \n !EventTypeIsAnonymous && \n !IsAtopTarget]


HasTarget -u-> IdleTouch: *Any* [IsTouch && \n !EventTypeIsAnonymous]

state HasTarget: enter: SetTargetToAtopControl
state HasTarget: leave: SetTargetToNothing

state HasTarget {
    [*] -> DecideTargetIsActive
    DecideTargetIsActive --> HasActive : [TargetIsActive]
    DecideTargetIsActive --> HasInactive: [!TargetIsActive]

    state HasActive {
        [*] -> DecideTargetIsBusy
        DecideTargetIsBusy --> HasAvailable: [!TargetIsBusy]
        DecideTargetIsBusy --> HasBusy: [TargetIsBusy]

        state HasAvailable: enter: NotifyBusy; NotifyEnter
        state HasAvailable: leave: (evt is Up ? NotifyUp); NotifyLeave; NotifyAvailable
        state HasAvailable {
            [*] -> DecideEventType
                DecideEventType -> Pending: [!EventTypeIsDown]
                DecideEventType --> Engaged: [EventTypeIsDown] / \n NotifyDown

                Pending --> Pending: Move [IsAtopTarget] / NotifyMove
                Pending --> Engaged: Down / \n NotifyDown

                Engaged --> Engaged: Move [IsAtopTarget] / NotifyMove
                Engaged --> Pending: Up [IsPointer] / \n NotifyUp
                Engaged --> EngagedRemotely: Move [!IsAtopTarget] / \n NotifyEngagedEscape

                EngagedRemotely --> Engaged: Move [IsAtopTarget] / \n NotifyEngagedReturn
                EngagedRemotely --> EngagedRemotely: Move [!IsAtopTarget] / NotifyMove
            }
        }
    }

    HasInactive --> HasActive: TargetBecameActive
    HasActive -l-> HasInactive: TargetBecameInactive \n [IsAtopTarget]
}



@enduml